# xmcd
#
# Track frame offsets:
#	150
#	21610
#	41387
#	64320
#	83840
#	105520
#	125210
#	146850
#	167367
#
# Disc length: 2508 seconds
#
# Revision: 0
# Processed by: cddbd v1.5.2PL0 Copyright (c) Steve Scherf et al.
# Submitted via: EasyCDDAExtractor 15.3.0.1
#
DISCID=7d09ca09
DTITLE=Maria Alejandra - Que Lloren Las Mujeres Tontas
DYEAR=1996
DGENRE=Latin
TTITLE0=Que Lloren Las Mujeres Tontas
TTITLE1=Te Ame Cuando Te Conoci
TTITLE2=Ven Hacia Mi
TTITLE3=Quiereme
TTITLE4=Lluvia De Amor
TTITLE5=Ya Me Canse
TTITLE6=Ya No Quiero Amar
TTITLE7=Volviste
TTITLE8=Fueron Contigo
EXTD=
EXTT0=
EXTT1=
EXTT2=
EXTT3=
EXTT4=
EXTT5=
EXTT6=
EXTT7=
EXTT8=
PLAYORDER=
